# xmcd
#
# Track frame offsets:
#	150
#	23269
#	40445
#	61413
#	76311
#	92248
#	106170
#	122041
#	135284
#	151564
#	169801
#	183406
#	195079
#	213745
#
# Disc length: 3080
#
# Revision: 1
# Processed by: cddbd v1.5.1PL0 Copyright (c) Steve Scherf et al.
# Submitted via: CDex 1.50beta9
# Normalized: r0:TDELIM( - )
#
DISCID=a70c060e
DTITLE=Various Artist - Hitz - Country - Vol 1
DYEAR=2002
DGENRE=Country
TTITLE0=Alan Jackson - Where Were You (When The World Stopped Turning)
TTITLE1=Brooks and Dunn - Long Goodbye
TTITLE2=Martina McBride - Blessed
TTITLE3=Blake Shelton - All Over Me
TTITLE4=Phil Vassar - That's When I Love You
TTITLE5=Cyndi Thompson - I Always Liked That Best
TTITLE6=Lee Ann Womack - Does My Ring Burn Your Finger
TTITLE7=Emerson Drive - I Should Be Sleeping
TTITLE8=Tammy Cochran - I Cry
TTITLE9=Shannon Brown - Baby I Lied
TTITLE10=Blackhawk - Days Of America
TTITLE11=Diamond Rio - That's Just That
TTITLE12=Kenny Rogers - Homeland
TTITLE13=Kevin Denney - That's Just Jessie
EXTD=YEAR: 2002
EXTT0=
EXTT1=
EXTT2=
EXTT3=
EXTT4=
EXTT5=
EXTT6=
EXTT7=
EXTT8=
EXTT9=
EXTT10=
EXTT11=
EXTT12=
EXTT13=
PLAYORDER=
